G04 #@! TF.GenerationSoftware,KiCad,Pcbnew,5.1.5-52549c5~84~ubuntu19.04.1*
G04 #@! TF.CreationDate,2020-03-13T14:57:39+01:00*
G04 #@! TF.ProjectId,ADcmXL3021_adapter,4144636d-584c-4333-9032-315f61646170,rev?*
G04 #@! TF.SameCoordinates,Original*
G04 #@! TF.FileFunction,Copper,L1,Top*
G04 #@! TF.FilePolarity,Positive*
%FSLAX46Y46*%
G04 Gerber Fmt 4.6, Leading zero omitted, Abs format (unit mm)*
G04 Created by KiCad (PCBNEW 5.1.5-52549c5~84~ubuntu19.04.1) date 2020-03-13 14:57:39*
%MOMM*%
%LPD*%
G04 APERTURE LIST*
%ADD10O,1.000000X1.000000*%
%ADD11R,1.000000X1.000000*%
%ADD12R,1.800000X0.800000*%
%ADD13R,1.600000X0.300000*%
%ADD14C,0.101600*%
%ADD15C,0.800000*%
%ADD16C,0.250000*%
G04 APERTURE END LIST*
D10*
X127254000Y-85344000D03*
X127254000Y-84074000D03*
X127254000Y-82804000D03*
X127254000Y-81534000D03*
X127254000Y-80264000D03*
X127254000Y-78994000D03*
X127254000Y-77724000D03*
X127254000Y-76454000D03*
D11*
X127254000Y-75184000D03*
D10*
X132638800Y-75565000D03*
X131368800Y-75565000D03*
X130098800Y-75565000D03*
D12*
X133604000Y-85292000D03*
X133604000Y-78792000D03*
D13*
X131804000Y-83542000D03*
X135404000Y-83542000D03*
X131804000Y-83042000D03*
X135404000Y-83042000D03*
X131804000Y-82542000D03*
X135404000Y-82542000D03*
X131804000Y-82042000D03*
X135404000Y-82042000D03*
X131804000Y-81542000D03*
X135404000Y-81542000D03*
X131804000Y-81042000D03*
X135404000Y-81042000D03*
X131804000Y-80542000D03*
X135404000Y-80542000D03*
G04 #@! TA.AperFunction,SMDPad,CuDef*
D14*
G36*
X135450105Y-74254604D02*
G01*
X135474373Y-74258204D01*
X135498172Y-74264165D01*
X135521271Y-74272430D01*
X135543450Y-74282920D01*
X135564493Y-74295532D01*
X135584199Y-74310147D01*
X135602377Y-74326623D01*
X135618853Y-74344801D01*
X135633468Y-74364507D01*
X135646080Y-74385550D01*
X135656570Y-74407729D01*
X135664835Y-74430828D01*
X135670796Y-74454627D01*
X135674396Y-74478895D01*
X135675600Y-74503399D01*
X135675600Y-75153401D01*
X135674396Y-75177905D01*
X135670796Y-75202173D01*
X135664835Y-75225972D01*
X135656570Y-75249071D01*
X135646080Y-75271250D01*
X135633468Y-75292293D01*
X135618853Y-75311999D01*
X135602377Y-75330177D01*
X135584199Y-75346653D01*
X135564493Y-75361268D01*
X135543450Y-75373880D01*
X135521271Y-75384370D01*
X135498172Y-75392635D01*
X135474373Y-75398596D01*
X135450105Y-75402196D01*
X135425601Y-75403400D01*
X134525599Y-75403400D01*
X134501095Y-75402196D01*
X134476827Y-75398596D01*
X134453028Y-75392635D01*
X134429929Y-75384370D01*
X134407750Y-75373880D01*
X134386707Y-75361268D01*
X134367001Y-75346653D01*
X134348823Y-75330177D01*
X134332347Y-75311999D01*
X134317732Y-75292293D01*
X134305120Y-75271250D01*
X134294630Y-75249071D01*
X134286365Y-75225972D01*
X134280404Y-75202173D01*
X134276804Y-75177905D01*
X134275600Y-75153401D01*
X134275600Y-74503399D01*
X134276804Y-74478895D01*
X134280404Y-74454627D01*
X134286365Y-74430828D01*
X134294630Y-74407729D01*
X134305120Y-74385550D01*
X134317732Y-74364507D01*
X134332347Y-74344801D01*
X134348823Y-74326623D01*
X134367001Y-74310147D01*
X134386707Y-74295532D01*
X134407750Y-74282920D01*
X134429929Y-74272430D01*
X134453028Y-74264165D01*
X134476827Y-74258204D01*
X134501095Y-74254604D01*
X134525599Y-74253400D01*
X135425601Y-74253400D01*
X135450105Y-74254604D01*
G37*
G04 #@! TD.AperFunction*
G04 #@! TA.AperFunction,SMDPad,CuDef*
G36*
X135450105Y-76304604D02*
G01*
X135474373Y-76308204D01*
X135498172Y-76314165D01*
X135521271Y-76322430D01*
X135543450Y-76332920D01*
X135564493Y-76345532D01*
X135584199Y-76360147D01*
X135602377Y-76376623D01*
X135618853Y-76394801D01*
X135633468Y-76414507D01*
X135646080Y-76435550D01*
X135656570Y-76457729D01*
X135664835Y-76480828D01*
X135670796Y-76504627D01*
X135674396Y-76528895D01*
X135675600Y-76553399D01*
X135675600Y-77203401D01*
X135674396Y-77227905D01*
X135670796Y-77252173D01*
X135664835Y-77275972D01*
X135656570Y-77299071D01*
X135646080Y-77321250D01*
X135633468Y-77342293D01*
X135618853Y-77361999D01*
X135602377Y-77380177D01*
X135584199Y-77396653D01*
X135564493Y-77411268D01*
X135543450Y-77423880D01*
X135521271Y-77434370D01*
X135498172Y-77442635D01*
X135474373Y-77448596D01*
X135450105Y-77452196D01*
X135425601Y-77453400D01*
X134525599Y-77453400D01*
X134501095Y-77452196D01*
X134476827Y-77448596D01*
X134453028Y-77442635D01*
X134429929Y-77434370D01*
X134407750Y-77423880D01*
X134386707Y-77411268D01*
X134367001Y-77396653D01*
X134348823Y-77380177D01*
X134332347Y-77361999D01*
X134317732Y-77342293D01*
X134305120Y-77321250D01*
X134294630Y-77299071D01*
X134286365Y-77275972D01*
X134280404Y-77252173D01*
X134276804Y-77227905D01*
X134275600Y-77203401D01*
X134275600Y-76553399D01*
X134276804Y-76528895D01*
X134280404Y-76504627D01*
X134286365Y-76480828D01*
X134294630Y-76457729D01*
X134305120Y-76435550D01*
X134317732Y-76414507D01*
X134332347Y-76394801D01*
X134348823Y-76376623D01*
X134367001Y-76360147D01*
X134386707Y-76345532D01*
X134407750Y-76332920D01*
X134429929Y-76322430D01*
X134453028Y-76314165D01*
X134476827Y-76308204D01*
X134501095Y-76304604D01*
X134525599Y-76303400D01*
X135425601Y-76303400D01*
X135450105Y-76304604D01*
G37*
G04 #@! TD.AperFunction*
G04 #@! TA.AperFunction,SMDPad,CuDef*
G36*
X137990105Y-74236604D02*
G01*
X138014373Y-74240204D01*
X138038172Y-74246165D01*
X138061271Y-74254430D01*
X138083450Y-74264920D01*
X138104493Y-74277532D01*
X138124199Y-74292147D01*
X138142377Y-74308623D01*
X138158853Y-74326801D01*
X138173468Y-74346507D01*
X138186080Y-74367550D01*
X138196570Y-74389729D01*
X138204835Y-74412828D01*
X138210796Y-74436627D01*
X138214396Y-74460895D01*
X138215600Y-74485399D01*
X138215600Y-75135401D01*
X138214396Y-75159905D01*
X138210796Y-75184173D01*
X138204835Y-75207972D01*
X138196570Y-75231071D01*
X138186080Y-75253250D01*
X138173468Y-75274293D01*
X138158853Y-75293999D01*
X138142377Y-75312177D01*
X138124199Y-75328653D01*
X138104493Y-75343268D01*
X138083450Y-75355880D01*
X138061271Y-75366370D01*
X138038172Y-75374635D01*
X138014373Y-75380596D01*
X137990105Y-75384196D01*
X137965601Y-75385400D01*
X137065599Y-75385400D01*
X137041095Y-75384196D01*
X137016827Y-75380596D01*
X136993028Y-75374635D01*
X136969929Y-75366370D01*
X136947750Y-75355880D01*
X136926707Y-75343268D01*
X136907001Y-75328653D01*
X136888823Y-75312177D01*
X136872347Y-75293999D01*
X136857732Y-75274293D01*
X136845120Y-75253250D01*
X136834630Y-75231071D01*
X136826365Y-75207972D01*
X136820404Y-75184173D01*
X136816804Y-75159905D01*
X136815600Y-75135401D01*
X136815600Y-74485399D01*
X136816804Y-74460895D01*
X136820404Y-74436627D01*
X136826365Y-74412828D01*
X136834630Y-74389729D01*
X136845120Y-74367550D01*
X136857732Y-74346507D01*
X136872347Y-74326801D01*
X136888823Y-74308623D01*
X136907001Y-74292147D01*
X136926707Y-74277532D01*
X136947750Y-74264920D01*
X136969929Y-74254430D01*
X136993028Y-74246165D01*
X137016827Y-74240204D01*
X137041095Y-74236604D01*
X137065599Y-74235400D01*
X137965601Y-74235400D01*
X137990105Y-74236604D01*
G37*
G04 #@! TD.AperFunction*
G04 #@! TA.AperFunction,SMDPad,CuDef*
G36*
X137990105Y-76286604D02*
G01*
X138014373Y-76290204D01*
X138038172Y-76296165D01*
X138061271Y-76304430D01*
X138083450Y-76314920D01*
X138104493Y-76327532D01*
X138124199Y-76342147D01*
X138142377Y-76358623D01*
X138158853Y-76376801D01*
X138173468Y-76396507D01*
X138186080Y-76417550D01*
X138196570Y-76439729D01*
X138204835Y-76462828D01*
X138210796Y-76486627D01*
X138214396Y-76510895D01*
X138215600Y-76535399D01*
X138215600Y-77185401D01*
X138214396Y-77209905D01*
X138210796Y-77234173D01*
X138204835Y-77257972D01*
X138196570Y-77281071D01*
X138186080Y-77303250D01*
X138173468Y-77324293D01*
X138158853Y-77343999D01*
X138142377Y-77362177D01*
X138124199Y-77378653D01*
X138104493Y-77393268D01*
X138083450Y-77405880D01*
X138061271Y-77416370D01*
X138038172Y-77424635D01*
X138014373Y-77430596D01*
X137990105Y-77434196D01*
X137965601Y-77435400D01*
X137065599Y-77435400D01*
X137041095Y-77434196D01*
X137016827Y-77430596D01*
X136993028Y-77424635D01*
X136969929Y-77416370D01*
X136947750Y-77405880D01*
X136926707Y-77393268D01*
X136907001Y-77378653D01*
X136888823Y-77362177D01*
X136872347Y-77343999D01*
X136857732Y-77324293D01*
X136845120Y-77303250D01*
X136834630Y-77281071D01*
X136826365Y-77257972D01*
X136820404Y-77234173D01*
X136816804Y-77209905D01*
X136815600Y-77185401D01*
X136815600Y-76535399D01*
X136816804Y-76510895D01*
X136820404Y-76486627D01*
X136826365Y-76462828D01*
X136834630Y-76439729D01*
X136845120Y-76417550D01*
X136857732Y-76396507D01*
X136872347Y-76376801D01*
X136888823Y-76358623D01*
X136907001Y-76342147D01*
X136926707Y-76327532D01*
X136947750Y-76314920D01*
X136969929Y-76304430D01*
X136993028Y-76296165D01*
X137016827Y-76290204D01*
X137041095Y-76286604D01*
X137065599Y-76285400D01*
X137965601Y-76285400D01*
X137990105Y-76286604D01*
G37*
G04 #@! TD.AperFunction*
D15*
X136245600Y-74828400D03*
X130606800Y-79451200D03*
X136702800Y-79756000D03*
X137427800Y-80575233D03*
X137058400Y-83007200D03*
X135483600Y-84378800D03*
D16*
X136263600Y-74810400D02*
X136245600Y-74828400D01*
X137515600Y-74810400D02*
X136263600Y-74810400D01*
X134975600Y-74828400D02*
X136245600Y-74828400D01*
X131154000Y-80542000D02*
X130606800Y-79994800D01*
X131804000Y-80542000D02*
X131154000Y-80542000D01*
X130606800Y-79994800D02*
X130606800Y-79451200D01*
X135404000Y-82042000D02*
X137034035Y-82042000D01*
X137034035Y-82042000D02*
X138176000Y-80900035D01*
X138176000Y-80900035D02*
X138176000Y-77419200D01*
X138176000Y-77419200D02*
X138023600Y-77266800D01*
X137515600Y-76860400D02*
X136815600Y-76860400D01*
X136815600Y-76860400D02*
X135077200Y-76860400D01*
X135780801Y-86018201D02*
X128385401Y-86018201D01*
X128385401Y-86018201D02*
X127660400Y-85293200D01*
X138176000Y-83623002D02*
X135780801Y-86018201D01*
X138176000Y-80900035D02*
X138176000Y-83623002D01*
X135404000Y-78706998D02*
X134624202Y-77927200D01*
X135404000Y-80542000D02*
X135404000Y-78706998D01*
X134624202Y-77927200D02*
X132232400Y-77927200D01*
X132232400Y-77927200D02*
X130200400Y-75895200D01*
X128574800Y-77571600D02*
X127609600Y-76606400D01*
X128574800Y-78847802D02*
X128574800Y-77571600D01*
X130768998Y-81042000D02*
X128574800Y-78847802D01*
X131804000Y-81042000D02*
X130768998Y-81042000D01*
X136702800Y-80793200D02*
X136702800Y-79756000D01*
X136454000Y-81042000D02*
X136702800Y-80793200D01*
X135404000Y-81042000D02*
X136454000Y-81042000D01*
X128090790Y-79000202D02*
X128090790Y-78103590D01*
X128090790Y-78103590D02*
X127711200Y-77724000D01*
X131804000Y-81542000D02*
X130632588Y-81542000D01*
X130632588Y-81542000D02*
X128090790Y-79000202D01*
X137427800Y-80704610D02*
X137427800Y-80575233D01*
X136590410Y-81542000D02*
X137427800Y-80704610D01*
X135404000Y-81542000D02*
X136590410Y-81542000D01*
X127609600Y-79155422D02*
X127609600Y-78994000D01*
X131804000Y-82042000D02*
X130496178Y-82042000D01*
X130496178Y-82042000D02*
X127609600Y-79155422D01*
X130754000Y-83042000D02*
X129195200Y-81483200D01*
X131804000Y-83042000D02*
X130754000Y-83042000D01*
X129195200Y-81483200D02*
X129184400Y-81483200D01*
X129184400Y-81483200D02*
X127965200Y-80264000D01*
X127965200Y-80264000D02*
X127711200Y-80264000D01*
X137023600Y-83042000D02*
X137058400Y-83007200D01*
X135404000Y-83042000D02*
X137023600Y-83042000D01*
X131804000Y-83542000D02*
X130606790Y-83542000D01*
X130606790Y-83542000D02*
X128997999Y-81933209D01*
X128997999Y-81933209D02*
X128612195Y-81547405D01*
X128612195Y-81547405D02*
X128598790Y-81534000D01*
X128598790Y-81534000D02*
X127609600Y-81534000D01*
X135404000Y-83542000D02*
X135404000Y-84299200D01*
X135404000Y-84299200D02*
X135483600Y-84378800D01*
M02*
