G04 #@! TF.GenerationSoftware,KiCad,Pcbnew,5.1.5-52549c5~84~ubuntu19.04.1*
G04 #@! TF.CreationDate,2020-03-13T14:57:39+01:00*
G04 #@! TF.ProjectId,ADcmXL3021_adapter,4144636d-584c-4333-9032-315f61646170,rev?*
G04 #@! TF.SameCoordinates,Original*
G04 #@! TF.FileFunction,Legend,Top*
G04 #@! TF.FilePolarity,Positive*
%FSLAX46Y46*%
G04 Gerber Fmt 4.6, Leading zero omitted, Abs format (unit mm)*
G04 Created by KiCad (PCBNEW 5.1.5-52549c5~84~ubuntu19.04.1) date 2020-03-13 14:57:39*
%MOMM*%
%LPD*%
G04 APERTURE LIST*
%ADD10C,0.150000*%
%ADD11C,0.120000*%
G04 APERTURE END LIST*
D10*
X131705485Y-74144228D02*
X131819771Y-74144228D01*
X131876914Y-74172800D01*
X131934057Y-74229942D01*
X131962628Y-74344228D01*
X131962628Y-74544228D01*
X131934057Y-74658514D01*
X131876914Y-74715657D01*
X131819771Y-74744228D01*
X131705485Y-74744228D01*
X131648342Y-74715657D01*
X131591200Y-74658514D01*
X131562628Y-74544228D01*
X131562628Y-74344228D01*
X131591200Y-74229942D01*
X131648342Y-74172800D01*
X131705485Y-74144228D01*
X132219771Y-74144228D02*
X132219771Y-74629942D01*
X132248342Y-74687085D01*
X132276914Y-74715657D01*
X132334057Y-74744228D01*
X132448342Y-74744228D01*
X132505485Y-74715657D01*
X132534057Y-74687085D01*
X132562628Y-74629942D01*
X132562628Y-74144228D01*
X132762628Y-74144228D02*
X133105485Y-74144228D01*
X132934057Y-74744228D02*
X132934057Y-74144228D01*
X133162628Y-74801371D02*
X133619771Y-74801371D01*
X133676914Y-74144228D02*
X133876914Y-74744228D01*
X134076914Y-74144228D01*
X131468800Y-78433485D02*
X131468800Y-78147771D01*
X131640228Y-78490628D02*
X131040228Y-78290628D01*
X131640228Y-78090628D01*
X131640228Y-77604914D02*
X131640228Y-77890628D01*
X131040228Y-77890628D01*
X131640228Y-77404914D02*
X131040228Y-77404914D01*
X131468800Y-77204914D01*
X131040228Y-77004914D01*
X131640228Y-77004914D01*
X131097371Y-76747771D02*
X131068800Y-76719200D01*
X131040228Y-76662057D01*
X131040228Y-76519200D01*
X131068800Y-76462057D01*
X131097371Y-76433485D01*
X131154514Y-76404914D01*
X131211657Y-76404914D01*
X131297371Y-76433485D01*
X131640228Y-76776342D01*
X131640228Y-76404914D01*
X128779714Y-74572800D02*
X129065428Y-74572800D01*
X128722571Y-74744228D02*
X128922571Y-74144228D01*
X129122571Y-74744228D01*
X129608285Y-74744228D02*
X129322571Y-74744228D01*
X129322571Y-74144228D01*
X129808285Y-74744228D02*
X129808285Y-74144228D01*
X130008285Y-74572800D01*
X130208285Y-74144228D01*
X130208285Y-74744228D01*
X130808285Y-74744228D02*
X130465428Y-74744228D01*
X130636857Y-74744228D02*
X130636857Y-74144228D01*
X130579714Y-74229942D01*
X130522571Y-74287085D01*
X130465428Y-74315657D01*
X128035142Y-85066228D02*
X128406571Y-85066228D01*
X128206571Y-85294800D01*
X128292285Y-85294800D01*
X128349428Y-85323371D01*
X128378000Y-85351942D01*
X128406571Y-85409085D01*
X128406571Y-85551942D01*
X128378000Y-85609085D01*
X128349428Y-85637657D01*
X128292285Y-85666228D01*
X128120857Y-85666228D01*
X128063714Y-85637657D01*
X128035142Y-85609085D01*
X128578000Y-85066228D02*
X128778000Y-85666228D01*
X128978000Y-85066228D01*
X129120857Y-85066228D02*
X129492285Y-85066228D01*
X129292285Y-85294800D01*
X129378000Y-85294800D01*
X129435142Y-85323371D01*
X129463714Y-85351942D01*
X129492285Y-85409085D01*
X129492285Y-85551942D01*
X129463714Y-85609085D01*
X129435142Y-85637657D01*
X129378000Y-85666228D01*
X129206571Y-85666228D01*
X129149428Y-85637657D01*
X129120857Y-85609085D01*
X128192285Y-83447000D02*
X128792285Y-83447000D01*
X128678000Y-84288285D02*
X128649428Y-84316857D01*
X128563714Y-84345428D01*
X128506571Y-84345428D01*
X128420857Y-84316857D01*
X128363714Y-84259714D01*
X128335142Y-84202571D01*
X128306571Y-84088285D01*
X128306571Y-84002571D01*
X128335142Y-83888285D01*
X128363714Y-83831142D01*
X128420857Y-83774000D01*
X128506571Y-83745428D01*
X128563714Y-83745428D01*
X128649428Y-83774000D01*
X128678000Y-83802571D01*
X128792285Y-83447000D02*
X129363714Y-83447000D01*
X128906571Y-84316857D02*
X128992285Y-84345428D01*
X129135142Y-84345428D01*
X129192285Y-84316857D01*
X129220857Y-84288285D01*
X129249428Y-84231142D01*
X129249428Y-84174000D01*
X129220857Y-84116857D01*
X129192285Y-84088285D01*
X129135142Y-84059714D01*
X129020857Y-84031142D01*
X128963714Y-84002571D01*
X128935142Y-83974000D01*
X128906571Y-83916857D01*
X128906571Y-83859714D01*
X128935142Y-83802571D01*
X128963714Y-83774000D01*
X129020857Y-83745428D01*
X129163714Y-83745428D01*
X129249428Y-83774000D01*
X128089142Y-83024628D02*
X128089142Y-82424628D01*
X128289142Y-82853200D01*
X128489142Y-82424628D01*
X128489142Y-83024628D01*
X128774857Y-83024628D02*
X128774857Y-82424628D01*
X129032000Y-82996057D02*
X129117714Y-83024628D01*
X129260571Y-83024628D01*
X129317714Y-82996057D01*
X129346285Y-82967485D01*
X129374857Y-82910342D01*
X129374857Y-82853200D01*
X129346285Y-82796057D01*
X129317714Y-82767485D01*
X129260571Y-82738914D01*
X129146285Y-82710342D01*
X129089142Y-82681771D01*
X129060571Y-82653200D01*
X129032000Y-82596057D01*
X129032000Y-82538914D01*
X129060571Y-82481771D01*
X129089142Y-82453200D01*
X129146285Y-82424628D01*
X129289142Y-82424628D01*
X129374857Y-82453200D01*
X129746285Y-82424628D02*
X129860571Y-82424628D01*
X129917714Y-82453200D01*
X129974857Y-82510342D01*
X130003428Y-82624628D01*
X130003428Y-82824628D01*
X129974857Y-82938914D01*
X129917714Y-82996057D01*
X129860571Y-83024628D01*
X129746285Y-83024628D01*
X129689142Y-82996057D01*
X129632000Y-82938914D01*
X129603428Y-82824628D01*
X129603428Y-82624628D01*
X129632000Y-82510342D01*
X129689142Y-82453200D01*
X129746285Y-82424628D01*
X128068514Y-81827657D02*
X128154228Y-81856228D01*
X128297085Y-81856228D01*
X128354228Y-81827657D01*
X128382800Y-81799085D01*
X128411371Y-81741942D01*
X128411371Y-81684800D01*
X128382800Y-81627657D01*
X128354228Y-81599085D01*
X128297085Y-81570514D01*
X128182800Y-81541942D01*
X128125657Y-81513371D01*
X128097085Y-81484800D01*
X128068514Y-81427657D01*
X128068514Y-81370514D01*
X128097085Y-81313371D01*
X128125657Y-81284800D01*
X128182800Y-81256228D01*
X128325657Y-81256228D01*
X128411371Y-81284800D01*
X129011371Y-81799085D02*
X128982800Y-81827657D01*
X128897085Y-81856228D01*
X128839942Y-81856228D01*
X128754228Y-81827657D01*
X128697085Y-81770514D01*
X128668514Y-81713371D01*
X128639942Y-81599085D01*
X128639942Y-81513371D01*
X128668514Y-81399085D01*
X128697085Y-81341942D01*
X128754228Y-81284800D01*
X128839942Y-81256228D01*
X128897085Y-81256228D01*
X128982800Y-81284800D01*
X129011371Y-81313371D01*
X129554228Y-81856228D02*
X129268514Y-81856228D01*
X129268514Y-81256228D01*
X129754228Y-81856228D02*
X129754228Y-81256228D01*
X130097085Y-81856228D02*
X129839942Y-81513371D01*
X130097085Y-81256228D02*
X129754228Y-81599085D01*
X128089142Y-80586228D02*
X128089142Y-79986228D01*
X128289142Y-80414800D01*
X128489142Y-79986228D01*
X128489142Y-80586228D01*
X128889142Y-79986228D02*
X129003428Y-79986228D01*
X129060571Y-80014800D01*
X129117714Y-80071942D01*
X129146285Y-80186228D01*
X129146285Y-80386228D01*
X129117714Y-80500514D01*
X129060571Y-80557657D01*
X129003428Y-80586228D01*
X128889142Y-80586228D01*
X128832000Y-80557657D01*
X128774857Y-80500514D01*
X128746285Y-80386228D01*
X128746285Y-80186228D01*
X128774857Y-80071942D01*
X128832000Y-80014800D01*
X128889142Y-79986228D01*
X129374857Y-80557657D02*
X129460571Y-80586228D01*
X129603428Y-80586228D01*
X129660571Y-80557657D01*
X129689142Y-80529085D01*
X129717714Y-80471942D01*
X129717714Y-80414800D01*
X129689142Y-80357657D01*
X129660571Y-80329085D01*
X129603428Y-80300514D01*
X129489142Y-80271942D01*
X129432000Y-80243371D01*
X129403428Y-80214800D01*
X129374857Y-80157657D01*
X129374857Y-80100514D01*
X129403428Y-80043371D01*
X129432000Y-80014800D01*
X129489142Y-79986228D01*
X129632000Y-79986228D01*
X129717714Y-80014800D01*
X129974857Y-80586228D02*
X129974857Y-79986228D01*
X127912914Y-78468600D02*
X128512914Y-78468600D01*
X128398628Y-79367028D02*
X128198628Y-79081314D01*
X128055771Y-79367028D02*
X128055771Y-78767028D01*
X128284342Y-78767028D01*
X128341485Y-78795600D01*
X128370057Y-78824171D01*
X128398628Y-78881314D01*
X128398628Y-78967028D01*
X128370057Y-79024171D01*
X128341485Y-79052742D01*
X128284342Y-79081314D01*
X128055771Y-79081314D01*
X128512914Y-78468600D02*
X129084342Y-78468600D01*
X128627200Y-79338457D02*
X128712914Y-79367028D01*
X128855771Y-79367028D01*
X128912914Y-79338457D01*
X128941485Y-79309885D01*
X128970057Y-79252742D01*
X128970057Y-79195600D01*
X128941485Y-79138457D01*
X128912914Y-79109885D01*
X128855771Y-79081314D01*
X128741485Y-79052742D01*
X128684342Y-79024171D01*
X128655771Y-78995600D01*
X128627200Y-78938457D01*
X128627200Y-78881314D01*
X128655771Y-78824171D01*
X128684342Y-78795600D01*
X128741485Y-78767028D01*
X128884342Y-78767028D01*
X128970057Y-78795600D01*
X129084342Y-78468600D02*
X129541485Y-78468600D01*
X129141485Y-78767028D02*
X129484342Y-78767028D01*
X129312914Y-79367028D02*
X129312914Y-78767028D01*
X127833542Y-77097000D02*
X128433542Y-77097000D01*
X128176400Y-77681142D02*
X128262114Y-77709714D01*
X128290685Y-77738285D01*
X128319257Y-77795428D01*
X128319257Y-77881142D01*
X128290685Y-77938285D01*
X128262114Y-77966857D01*
X128204971Y-77995428D01*
X127976400Y-77995428D01*
X127976400Y-77395428D01*
X128176400Y-77395428D01*
X128233542Y-77424000D01*
X128262114Y-77452571D01*
X128290685Y-77509714D01*
X128290685Y-77566857D01*
X128262114Y-77624000D01*
X128233542Y-77652571D01*
X128176400Y-77681142D01*
X127976400Y-77681142D01*
X128433542Y-77097000D02*
X129004971Y-77097000D01*
X128547828Y-77966857D02*
X128633542Y-77995428D01*
X128776400Y-77995428D01*
X128833542Y-77966857D01*
X128862114Y-77938285D01*
X128890685Y-77881142D01*
X128890685Y-77824000D01*
X128862114Y-77766857D01*
X128833542Y-77738285D01*
X128776400Y-77709714D01*
X128662114Y-77681142D01*
X128604971Y-77652571D01*
X128576400Y-77624000D01*
X128547828Y-77566857D01*
X128547828Y-77509714D01*
X128576400Y-77452571D01*
X128604971Y-77424000D01*
X128662114Y-77395428D01*
X128804971Y-77395428D01*
X128890685Y-77424000D01*
X129004971Y-77097000D02*
X129519257Y-77097000D01*
X129262114Y-77709714D02*
X129262114Y-77995428D01*
X129062114Y-77395428D02*
X129262114Y-77709714D01*
X129462114Y-77395428D01*
X127938342Y-76696857D02*
X128024057Y-76725428D01*
X128166914Y-76725428D01*
X128224057Y-76696857D01*
X128252628Y-76668285D01*
X128281200Y-76611142D01*
X128281200Y-76554000D01*
X128252628Y-76496857D01*
X128224057Y-76468285D01*
X128166914Y-76439714D01*
X128052628Y-76411142D01*
X127995485Y-76382571D01*
X127966914Y-76354000D01*
X127938342Y-76296857D01*
X127938342Y-76239714D01*
X127966914Y-76182571D01*
X127995485Y-76154000D01*
X128052628Y-76125428D01*
X128195485Y-76125428D01*
X128281200Y-76154000D01*
X128652628Y-76439714D02*
X128652628Y-76725428D01*
X128452628Y-76125428D02*
X128652628Y-76439714D01*
X128852628Y-76125428D01*
X129052628Y-76725428D02*
X129052628Y-76125428D01*
X129395485Y-76725428D01*
X129395485Y-76125428D01*
X130024057Y-76668285D02*
X129995485Y-76696857D01*
X129909771Y-76725428D01*
X129852628Y-76725428D01*
X129766914Y-76696857D01*
X129709771Y-76639714D01*
X129681200Y-76582571D01*
X129652628Y-76468285D01*
X129652628Y-76382571D01*
X129681200Y-76268285D01*
X129709771Y-76211142D01*
X129766914Y-76154000D01*
X129852628Y-76125428D01*
X129909771Y-76125428D01*
X129995485Y-76154000D01*
X130024057Y-76182571D01*
X125887200Y-75539542D02*
X125858628Y-75596685D01*
X125858628Y-75682400D01*
X125887200Y-75768114D01*
X125944342Y-75825257D01*
X126001485Y-75853828D01*
X126115771Y-75882400D01*
X126201485Y-75882400D01*
X126315771Y-75853828D01*
X126372914Y-75825257D01*
X126430057Y-75768114D01*
X126458628Y-75682400D01*
X126458628Y-75625257D01*
X126430057Y-75539542D01*
X126401485Y-75510971D01*
X126201485Y-75510971D01*
X126201485Y-75625257D01*
X126458628Y-75253828D02*
X125858628Y-75253828D01*
X126458628Y-74910971D01*
X125858628Y-74910971D01*
X126458628Y-74625257D02*
X125858628Y-74625257D01*
X125858628Y-74482400D01*
X125887200Y-74396685D01*
X125944342Y-74339542D01*
X126001485Y-74310971D01*
X126115771Y-74282400D01*
X126201485Y-74282400D01*
X126315771Y-74310971D01*
X126372914Y-74339542D01*
X126430057Y-74396685D01*
X126458628Y-74482400D01*
X126458628Y-74625257D01*
D11*
X135685600Y-76114652D02*
X135685600Y-75592148D01*
X134265600Y-76114652D02*
X134265600Y-75592148D01*
X138225600Y-76096652D02*
X138225600Y-75574148D01*
X136805600Y-76096652D02*
X136805600Y-75574148D01*
D10*
X135240685Y-78433600D02*
X135269257Y-78462171D01*
X135297828Y-78547885D01*
X135297828Y-78605028D01*
X135269257Y-78690742D01*
X135212114Y-78747885D01*
X135154971Y-78776457D01*
X135040685Y-78805028D01*
X134954971Y-78805028D01*
X134840685Y-78776457D01*
X134783542Y-78747885D01*
X134726400Y-78690742D01*
X134697828Y-78605028D01*
X134697828Y-78547885D01*
X134726400Y-78462171D01*
X134754971Y-78433600D01*
X134754971Y-78205028D02*
X134726400Y-78176457D01*
X134697828Y-78119314D01*
X134697828Y-77976457D01*
X134726400Y-77919314D01*
X134754971Y-77890742D01*
X134812114Y-77862171D01*
X134869257Y-77862171D01*
X134954971Y-77890742D01*
X135297828Y-78233600D01*
X135297828Y-77862171D01*
X137780685Y-78433600D02*
X137809257Y-78462171D01*
X137837828Y-78547885D01*
X137837828Y-78605028D01*
X137809257Y-78690742D01*
X137752114Y-78747885D01*
X137694971Y-78776457D01*
X137580685Y-78805028D01*
X137494971Y-78805028D01*
X137380685Y-78776457D01*
X137323542Y-78747885D01*
X137266400Y-78690742D01*
X137237828Y-78605028D01*
X137237828Y-78547885D01*
X137266400Y-78462171D01*
X137294971Y-78433600D01*
X137837828Y-77862171D02*
X137837828Y-78205028D01*
X137837828Y-78033600D02*
X137237828Y-78033600D01*
X137323542Y-78090742D01*
X137380685Y-78147885D01*
X137409257Y-78205028D01*
M02*
